<svg width="14" height="16" viewBox="0 0 14 16" fill="none" xmlns="http://www.w3.org/2000/svg">
<g clip-path="url(#clip0_102_279)">
<path d="M7.00028 0C6.44715 0 6.00028 0.437017 6.00028 0.977941V1.52498C3.73465 1.87642 2.00028 3.79563 2.00028 6.11213V7.13286C2.00028 8.52031 1.5159 9.86804 0.631528 10.9499L0.165903 11.5214C-0.0153472 11.7414 -0.0497222 12.044 0.0752778 12.2976C0.200278 12.5513 0.462778 12.7132 0.750278 12.7132H13.2503C13.5378 12.7132 13.8003 12.5513 13.9253 12.2976C14.0503 12.044 14.0159 11.7414 13.8347 11.5214L13.369 10.9529C12.4847 9.86804 12.0003 8.52031 12.0003 7.13286V6.11213C12.0003 3.79563 10.2659 1.87642 8.00028 1.52498V0.977941C8.00028 0.437017 7.5534 0 7.00028 0ZM7.00028 2.93382H7.25028C9.04403 2.93382 10.5003 4.35795 10.5003 6.11213V7.13286C10.5003 8.59671 10.9347 10.0239 11.7409 11.2463H2.25965C3.0659 10.0239 3.50028 8.59671 3.50028 7.13286V6.11213C3.50028 4.35795 4.95653 2.93382 6.75028 2.93382H7.00028ZM9.00028 13.6912H7.00028H5.00028C5.00028 14.2107 5.20965 14.7088 5.58465 15.0756C5.95965 15.4423 6.46903 15.6471 7.00028 15.6471C7.53153 15.6471 8.0409 15.4423 8.4159 15.0756C8.7909 14.7088 9.00028 14.2107 9.00028 13.6912Z" fill="#D3D8DC"/>
</g>
<defs>
<clipPath id="clip0_102_279">
<rect width="14" height="15.6471" fill="white"/>
</clipPath>
</defs>
</svg>
