<svg width="20" height="20" viewBox="0 0 20 20" fill="none" xmlns="http://www.w3.org/2000/svg">
<path d="M3.35606 17.895L3.35361 17.895C3.30837 17.8952 3.26356 17.8862 3.22191 17.8686C3.18026 17.8509 3.14263 17.825 3.11132 17.7924C3.08001 17.7597 3.05568 17.721 3.03979 17.6787L2.57163 17.8543L3.03979 17.6787C3.02398 17.6365 3.01687 17.5916 3.01889 17.5466C3.20489 13.8314 6.2775 10.8928 9.98739 10.8856H9.99988C9.9999 10.8856 9.99992 10.8856 9.99994 10.8856C13.7147 10.886 16.7948 13.8266 16.981 17.5467C16.983 17.5914 16.976 17.6361 16.9603 17.6781L17.4288 17.8527L16.9603 17.6781C16.9446 17.7202 16.9205 17.7588 16.8894 17.7914C16.8584 17.824 16.8211 17.85 16.7798 17.8678C16.7386 17.8855 16.6942 17.8948 16.6494 17.895L3.35606 17.895Z" stroke="#798994"/>
<path d="M6.67285 5.44324C6.67286 3.60678 8.1697 2.105 10.0007 2.105C11.8326 2.105 13.3344 3.60779 13.3344 5.44324C13.3344 7.27969 11.8317 8.78743 10.0007 8.78743C8.17069 8.78743 6.67285 7.2807 6.67285 5.44324Z" stroke="#798994"/>
</svg>
