<svg width="20" height="20" viewBox="0 0 20 20" fill="none" xmlns="http://www.w3.org/2000/svg">
<path fill-rule="evenodd" clip-rule="evenodd" d="M11.5628 6.87516C11.5628 6.18525 11.0026 5.62518 10.3125 5.62518H6.56273C5.87263 5.62518 5.3125 6.18525 5.3125 6.87516C5.3125 7.56506 5.87263 8.12513 6.56273 8.12513H10.3125C11.0026 8.12513 11.5628 7.56506 11.5628 6.87516ZM10.9375 6.87516C10.9375 7.22006 10.6575 7.50019 10.3125 7.50019H6.56273C6.21783 7.50019 5.93777 7.22006 5.93777 6.87516C5.93777 6.53025 6.21783 6.25012 6.56273 6.25012H10.3125C10.6575 6.25012 10.9375 6.53025 10.9375 6.87516Z" fill="#8F72E6"/>
<path fill-rule="evenodd" clip-rule="evenodd" d="M14.6879 13.1252C14.6879 12.4352 14.1275 11.8752 13.4376 11.8752H6.56283C5.87296 11.8752 5.3125 12.4352 5.3125 13.1252C5.3125 13.8151 5.87296 14.3751 6.56283 14.3751H13.4376C14.1275 14.3751 14.6879 13.8151 14.6879 13.1252ZM14.0625 13.1252C14.0625 13.4701 13.7825 13.7502 13.4376 13.7502H6.56283C6.2179 13.7502 5.9379 13.4701 5.9379 13.1252C5.9379 12.7802 6.2179 12.5001 6.56283 12.5001H13.4376C13.7825 12.5001 14.0625 12.7802 14.0625 13.1252Z" fill="#8F72E6"/>
<mask id="path-3-inside-1_133_418" fill="white">
<path fill-rule="evenodd" clip-rule="evenodd" d="M2.1875 6.56264V13.4377C2.1875 16.0249 4.28782 18.1252 6.87501 18.1252H13.125C15.7122 18.1252 17.8125 16.0249 17.8125 13.4377V9.68765C17.8125 8.82514 17.1125 8.12514 16.25 8.12514H14.6875V6.56264C14.6875 3.97544 12.5872 1.87512 10 1.87512H6.87501C4.28782 1.87512 2.1875 3.97544 2.1875 6.56264ZM2.8125 13.4377V6.56264C2.8125 4.32044 4.63282 2.50012 6.87501 2.50012H10C12.2422 2.50012 14.0625 4.32044 14.0625 6.56264V8.43764C14.0625 8.61014 14.2025 8.75014 14.375 8.75014H16.25C16.7675 8.75014 17.1875 9.17014 17.1875 9.68765V13.4377C17.1875 15.6799 15.3672 17.5002 13.125 17.5002H6.87501C4.63282 17.5002 2.8125 15.6799 2.8125 13.4377Z"/>
</mask>
<path fill-rule="evenodd" clip-rule="evenodd" d="M2.1875 6.56264V13.4377C2.1875 16.0249 4.28782 18.1252 6.87501 18.1252H13.125C15.7122 18.1252 17.8125 16.0249 17.8125 13.4377V9.68765C17.8125 8.82514 17.1125 8.12514 16.25 8.12514H14.6875V6.56264C14.6875 3.97544 12.5872 1.87512 10 1.87512H6.87501C4.28782 1.87512 2.1875 3.97544 2.1875 6.56264ZM2.8125 13.4377V6.56264C2.8125 4.32044 4.63282 2.50012 6.87501 2.50012H10C12.2422 2.50012 14.0625 4.32044 14.0625 6.56264V8.43764C14.0625 8.61014 14.2025 8.75014 14.375 8.75014H16.25C16.7675 8.75014 17.1875 9.17014 17.1875 9.68765V13.4377C17.1875 15.6799 15.3672 17.5002 13.125 17.5002H6.87501C4.63282 17.5002 2.8125 15.6799 2.8125 13.4377Z" fill="#8F72E6"/>
<path d="M14.6875 8.12514H13.6875V9.12514H14.6875V8.12514ZM1.1875 6.56264V13.4377H3.1875V6.56264H1.1875ZM1.1875 13.4377C1.1875 16.5771 3.73553 19.1252 6.87501 19.1252V17.1252C4.8401 17.1252 3.1875 15.4726 3.1875 13.4377H1.1875ZM6.87501 19.1252H13.125V17.1252H6.87501V19.1252ZM13.125 19.1252C16.2645 19.1252 18.8125 16.5771 18.8125 13.4377H16.8125C16.8125 15.4726 15.1599 17.1252 13.125 17.1252V19.1252ZM18.8125 13.4377V9.68765H16.8125V13.4377H18.8125ZM18.8125 9.68765C18.8125 8.27286 17.6648 7.12514 16.25 7.12514V9.12514C16.5603 9.12514 16.8125 9.37743 16.8125 9.68765H18.8125ZM16.25 7.12514H14.6875V9.12514H16.25V7.12514ZM15.6875 8.12514V6.56264H13.6875V8.12514H15.6875ZM15.6875 6.56264C15.6875 3.42316 13.1395 0.875122 10 0.875122V2.87512C12.0349 2.87512 13.6875 4.52773 13.6875 6.56264H15.6875ZM10 0.875122H6.87501V2.87512H10V0.875122ZM6.87501 0.875122C3.73553 0.875122 1.1875 3.42316 1.1875 6.56264H3.1875C3.1875 4.52773 4.8401 2.87512 6.87501 2.87512V0.875122ZM3.8125 13.4377V6.56264H1.8125V13.4377H3.8125ZM3.8125 6.56264C3.8125 4.87273 5.18511 3.50012 6.87501 3.50012V1.50012C4.08054 1.50012 1.8125 3.76816 1.8125 6.56264H3.8125ZM6.87501 3.50012H10V1.50012H6.87501V3.50012ZM10 3.50012C11.6899 3.50012 13.0625 4.87273 13.0625 6.56264H15.0625C15.0625 3.76816 12.7945 1.50012 10 1.50012V3.50012ZM13.0625 6.56264V8.43764H15.0625V6.56264H13.0625ZM13.0625 8.43764C13.0625 9.16243 13.6503 9.75014 14.375 9.75014V7.75014C14.7548 7.75014 15.0625 8.05785 15.0625 8.43764H13.0625ZM14.375 9.75014H16.25V7.75014H14.375V9.75014ZM16.25 9.75014C16.2153 9.75014 16.1875 9.72243 16.1875 9.68765H18.1875C18.1875 8.61786 17.3198 7.75014 16.25 7.75014V9.75014ZM16.1875 9.68765V13.4377H18.1875V9.68765H16.1875ZM16.1875 13.4377C16.1875 15.1276 14.8149 16.5002 13.125 16.5002V18.5002C15.9195 18.5002 18.1875 16.2321 18.1875 13.4377H16.1875ZM13.125 16.5002H6.87501V18.5002H13.125V16.5002ZM6.87501 16.5002C5.1851 16.5002 3.8125 15.1276 3.8125 13.4377H1.8125C1.8125 16.2321 4.08054 18.5002 6.87501 18.5002V16.5002Z" fill="#8B67F3" mask="url(#path-3-inside-1_133_418)"/>
</svg>
