<svg width="19" height="19" viewBox="0 0 19 19" fill="none" xmlns="http://www.w3.org/2000/svg">
<g clip-path="url(#clip0_121_597)">
<path d="M14.25 17.2188H4.75C3.96264 17.2188 3.20753 16.906 2.65078 16.3492C2.09403 15.7925 1.78125 15.0374 1.78125 14.25V5.9375C1.78125 5.15014 2.09403 4.39503 2.65078 3.83828C3.20753 3.28153 3.96264 2.96875 4.75 2.96875H14.25C15.0374 2.96875 15.7925 3.28153 16.3492 3.83828C16.906 4.39503 17.2188 5.15014 17.2188 5.9375V14.25C17.2188 15.0374 16.906 15.7925 16.3492 16.3492C15.7925 16.906 15.0374 17.2188 14.25 17.2188ZM4.75 4.15625C4.27758 4.15625 3.82452 4.34392 3.49047 4.67797C3.15642 5.01202 2.96875 5.46508 2.96875 5.9375V14.25C2.96875 14.7224 3.15642 15.1755 3.49047 15.5095C3.82452 15.8436 4.27758 16.0312 4.75 16.0312H14.25C14.7224 16.0312 15.1755 15.8436 15.5095 15.5095C15.8436 15.1755 16.0312 14.7224 16.0312 14.25V5.9375C16.0312 5.46508 15.8436 5.01202 15.5095 4.67797C15.1755 4.34392 14.7224 4.15625 14.25 4.15625H4.75Z" fill="#071A2F"/>
<path d="M14.25 14.8438H11.875C11.7175 14.8438 11.5665 14.7812 11.4552 14.6698C11.3438 14.5585 11.2812 14.4075 11.2812 14.25V11.875C11.2812 11.7175 11.3438 11.5665 11.4552 11.4552C11.5665 11.3438 11.7175 11.2812 11.875 11.2812H14.25C14.4075 11.2812 14.5585 11.3438 14.6698 11.4552C14.7812 11.5665 14.8438 11.7175 14.8438 11.875V14.25C14.8438 14.4075 14.7812 14.5585 14.6698 14.6698C14.5585 14.7812 14.4075 14.8438 14.25 14.8438ZM12.4688 13.6562H13.6562V12.4688H12.4688V13.6562Z" fill="#071A2F"/>
<path d="M16.625 7.71875H2.375C2.21753 7.71875 2.06651 7.65619 1.95516 7.54484C1.84381 7.43349 1.78125 7.28247 1.78125 7.125C1.78125 6.96753 1.84381 6.81651 1.95516 6.70516C2.06651 6.59381 2.21753 6.53125 2.375 6.53125H16.625C16.7825 6.53125 16.9335 6.59381 17.0448 6.70516C17.1562 6.81651 17.2188 6.96753 17.2188 7.125C17.2188 7.28247 17.1562 7.43349 17.0448 7.54484C16.9335 7.65619 16.7825 7.71875 16.625 7.71875Z" fill="#071A2F"/>
<path d="M6.53125 5.34375C6.37378 5.34375 6.22276 5.28119 6.11141 5.16984C6.00006 5.05849 5.9375 4.90747 5.9375 4.75V2.375C5.9375 2.21753 6.00006 2.06651 6.11141 1.95516C6.22276 1.84381 6.37378 1.78125 6.53125 1.78125C6.68872 1.78125 6.83974 1.84381 6.95109 1.95516C7.06244 2.06651 7.125 2.21753 7.125 2.375V4.75C7.125 4.90747 7.06244 5.05849 6.95109 5.16984C6.83974 5.28119 6.68872 5.34375 6.53125 5.34375Z" fill="#071A2F"/>
<path d="M12.4688 5.34375C12.3113 5.34375 12.1603 5.28119 12.0489 5.16984C11.9376 5.05849 11.875 4.90747 11.875 4.75V2.375C11.875 2.21753 11.9376 2.06651 12.0489 1.95516C12.1603 1.84381 12.3113 1.78125 12.4688 1.78125C12.6262 1.78125 12.7772 1.84381 12.8886 1.95516C12.9999 2.06651 13.0625 2.21753 13.0625 2.375V4.75C13.0625 4.90747 12.9999 5.05849 12.8886 5.16984C12.7772 5.28119 12.6262 5.34375 12.4688 5.34375Z" fill="#071A2F"/>
</g>
<defs>
<clipPath id="clip0_121_597">
<rect width="19" height="19" fill="white"/>
</clipPath>
</defs>
</svg>
