<svg width="17" height="17" viewBox="0 0 17 17" fill="none" xmlns="http://www.w3.org/2000/svg">
<path fill-rule="evenodd" clip-rule="evenodd" d="M4.42741 9.20833C7.30962 9.20833 7.43783 10.1858 7.43783 12.2187C7.43783 13.2373 7.43783 13.962 7.00999 14.4925C6.5177 15.1038 5.62166 15.2292 4.42741 15.2292C3.23316 15.2292 2.33712 15.1038 1.84483 14.4925C1.41699 13.962 1.41699 13.238 1.41699 12.2365L1.94824 12.2187H1.41699C1.41699 10.1858 1.5452 9.20833 4.42741 9.20833ZM12.2191 9.20833C15.1013 9.20833 15.2295 10.1858 15.2295 12.2187C15.2295 13.2373 15.2295 13.962 14.8017 14.4925C14.3094 15.1038 13.4133 15.2292 12.2191 15.2292C11.0248 15.2292 10.1288 15.1038 9.63649 14.4925C9.20866 13.962 9.20866 13.238 9.20866 12.2365L9.73991 12.2187H9.20866C9.20866 10.1858 9.33687 9.20833 12.2191 9.20833ZM4.57344 10.2711L4.42741 10.2708C2.57939 10.2708 2.48461 10.4034 2.47975 11.9546L2.48005 12.5589C2.48341 13.1758 2.50691 13.6214 2.67145 13.8267C2.85916 14.059 3.41662 14.1667 4.42741 14.1667C5.4382 14.1667 5.99566 14.0583 6.18337 13.826C6.37533 13.5872 6.37533 13.0206 6.37533 12.2357C6.37533 10.4648 6.37533 10.2795 4.57344 10.2711ZM12.3651 10.2711L12.2191 10.2708C10.3711 10.2708 10.2763 10.4034 10.2714 11.9546L10.2717 12.5589C10.2751 13.1758 10.2986 13.6214 10.4631 13.8267C10.6508 14.059 11.2083 14.1667 12.2191 14.1667C13.2299 14.1667 13.7873 14.0583 13.975 13.826C14.167 13.5872 14.167 13.0206 14.167 12.2357C14.167 10.4648 14.167 10.2795 12.3651 10.2711ZM4.42741 1.41666C7.30962 1.41666 7.43783 2.39416 7.43783 4.42708C7.43783 5.44566 7.43783 6.17029 7.00999 6.70083C6.5177 7.31212 5.62166 7.4375 4.42741 7.4375C3.23316 7.4375 2.33712 7.31212 1.84483 6.70083C1.41699 6.17029 1.41699 5.44637 1.41699 4.44479L1.94824 4.42708H1.41699C1.41699 2.39416 1.5452 1.41666 4.42741 1.41666ZM12.2191 1.41666C15.1013 1.41666 15.2295 2.39416 15.2295 4.42708C15.2295 5.44566 15.2295 6.17029 14.8017 6.70083C14.3094 7.31212 13.4133 7.4375 12.2191 7.4375C11.0248 7.4375 10.1288 7.31212 9.63649 6.70083C9.20866 6.17029 9.20866 5.44637 9.20866 4.44479L9.73991 4.42708H9.20866C9.20866 2.39416 9.33687 1.41666 12.2191 1.41666ZM4.57344 2.47948L4.42741 2.47916C2.57939 2.47916 2.48461 2.61177 2.47975 4.16291L2.48005 4.76721C2.48341 5.38414 2.50691 5.82978 2.67145 6.035C2.85916 6.26733 3.41662 6.375 4.42741 6.375C5.4382 6.375 5.99566 6.26662 6.18337 6.03429C6.37533 5.79558 6.37533 5.22891 6.37533 4.44408C6.37533 2.6731 6.37533 2.48782 4.57344 2.47948ZM12.3651 2.47948L12.2191 2.47916C10.3711 2.47916 10.2763 2.61177 10.2714 4.16291L10.2717 4.76721C10.2751 5.38414 10.2986 5.82978 10.4631 6.035C10.6508 6.26733 11.2083 6.375 12.2191 6.375C13.2299 6.375 13.7873 6.26662 13.975 6.03429C14.167 5.79558 14.167 5.22891 14.167 4.44408C14.167 2.6731 14.167 2.48782 12.3651 2.47948Z" fill="#3698BF"/>
</svg>
