<svg width="17" height="17" viewBox="0 0 17 17" fill="none" xmlns="http://www.w3.org/2000/svg">
<g clip-path="url(#clip0_138_200)">
<path d="M16.0703 1.36797H14.2375V0.398438C14.2375 0.292765 14.1955 0.191421 14.1208 0.1167C14.0461 0.0419781 13.9447 0 13.8391 0C13.7334 0 13.632 0.0419781 13.5573 0.1167C13.4826 0.191421 13.4406 0.292765 13.4406 0.398438V1.36797H10.6781V0.398438C10.6781 0.292765 10.6361 0.191421 10.5614 0.1167C10.4867 0.0419781 10.3854 0 10.2797 0C10.174 0 10.0727 0.0419781 9.99795 0.1167C9.92323 0.191421 9.88125 0.292765 9.88125 0.398438V1.36797H7.11875V0.398438C7.11875 0.292765 7.07677 0.191421 7.00205 0.1167C6.92733 0.0419781 6.82598 0 6.72031 0C6.61464 0 6.5133 0.0419781 6.43857 0.1167C6.36385 0.191421 6.32187 0.292765 6.32187 0.398438V1.36797H3.55937V0.398438C3.55937 0.292765 3.5174 0.191421 3.44268 0.1167C3.36795 0.0419781 3.26661 0 3.16094 0C3.05527 0 2.95392 0.0419781 2.8792 0.1167C2.80448 0.191421 2.7625 0.292765 2.7625 0.398438V1.36797H0.929688C0.683119 1.36797 0.446649 1.46592 0.272299 1.64027C0.0979489 1.81462 0 2.05109 0 2.29766L0 16.0703C0 16.3169 0.0979489 16.5534 0.272299 16.7277C0.446649 16.9021 0.683119 17 0.929688 17H12.6172C12.6435 16.9999 12.6698 16.9973 12.6955 16.992L12.7301 16.9814C12.758 16.9752 12.7846 16.964 12.8084 16.9482L12.839 16.9323C12.861 16.9175 12.8814 16.9006 12.9001 16.8818L16.8845 12.8974C16.9033 12.8788 16.9202 12.8583 16.9349 12.8363C16.9349 12.827 16.9442 12.8177 16.9495 12.8084C16.9654 12.7841 16.9767 12.7571 16.9827 12.7287C16.9827 12.7168 16.9907 12.7062 16.9934 12.6929C16.998 12.6679 17.0002 12.6426 17 12.6172V2.29766C17 2.05109 16.9021 1.81462 16.7277 1.64027C16.5534 1.46592 16.3169 1.36797 16.0703 1.36797ZM13.0156 13.0156H15.64L13.0156 15.64V13.0156ZM0.929688 2.16484H2.7625V3.13438C2.7625 3.24005 2.80448 3.34139 2.8792 3.41611C2.95392 3.49083 3.05527 3.53281 3.16094 3.53281C3.26661 3.53281 3.36795 3.49083 3.44268 3.41611C3.5174 3.34139 3.55937 3.24005 3.55937 3.13438V2.16484H6.32187V3.13438C6.32187 3.24005 6.36385 3.34139 6.43857 3.41611C6.5133 3.49083 6.61464 3.53281 6.72031 3.53281C6.82598 3.53281 6.92733 3.49083 7.00205 3.41611C7.07677 3.34139 7.11875 3.24005 7.11875 3.13438V2.16484H9.88125V3.13438C9.88125 3.24005 9.92323 3.34139 9.99795 3.41611C10.0727 3.49083 10.174 3.53281 10.2797 3.53281C10.3854 3.53281 10.4867 3.49083 10.5614 3.41611C10.6361 3.34139 10.6781 3.24005 10.6781 3.13438V2.16484H13.4406V3.13438C13.4406 3.24005 13.4826 3.34139 13.5573 3.41611C13.632 3.49083 13.7334 3.53281 13.8391 3.53281C13.9447 3.53281 14.0461 3.49083 14.1208 3.41611C14.1955 3.34139 14.2375 3.24005 14.2375 3.13438V2.16484H16.0703C16.1055 2.16484 16.1393 2.17884 16.1642 2.20374C16.1891 2.22865 16.2031 2.26243 16.2031 2.29766V4.19688H0.796875V2.29766C0.796875 2.26243 0.810868 2.22865 0.835775 2.20374C0.860682 2.17884 0.894463 2.16484 0.929688 2.16484ZM0.796875 16.0703V4.99375H16.2031V12.2188H12.6172C12.5115 12.2188 12.4102 12.2607 12.3354 12.3354C12.2607 12.4102 12.2188 12.5115 12.2188 12.6172V16.2031H0.929688C0.894463 16.2031 0.860682 16.1891 0.835775 16.1642C0.810868 16.1393 0.796875 16.1055 0.796875 16.0703Z" fill="#798994"/>
</g>
<defs>
<clipPath id="clip0_138_200">
<rect width="17" height="17" fill="white"/>
</clipPath>
</defs>
</svg>
