<svg width="146" height="146" viewBox="0 0 146 146" fill="none" xmlns="http://www.w3.org/2000/svg">
<circle cx="73" cy="73" r="73" fill="#D3D8DC"/>
<path d="M72.9702 73.8868C63.8209 73.904 56.2522 81.1477 55.7951 90.302C55.7829 90.5617 55.8237 90.8213 55.9151 91.0648C56.0064 91.3083 56.1463 91.5307 56.3263 91.7184C56.5063 91.9061 56.7226 92.0552 56.9621 92.1566C57.2016 92.2581 57.4592 92.3097 57.7192 92.3085H88.296C88.5548 92.3077 88.8108 92.2546 89.0485 92.1522C89.2862 92.0499 89.5007 91.9004 89.6791 91.7129C89.8575 91.5255 89.9961 91.3038 90.0865 91.0613C90.177 90.8188 90.2173 90.5605 90.2052 90.302C89.7475 81.1362 82.1611 73.8878 73.0001 73.8868H72.9702Z" fill="#071A2F"/>
<path d="M73.0012 53.6915C68.1513 53.6915 64.1973 57.6641 64.1973 62.5194C64.1973 67.3748 68.1513 71.3611 73.0012 71.3611C77.8512 71.3611 81.8189 67.3748 81.8189 62.5194C81.8189 57.6641 77.8512 53.6915 73.0012 53.6915Z" fill="#071A2F"/>
<circle cx="124.5" cy="123.5" r="10.5" fill="#00A7FF"/>
<g clip-path="url(#clip0_138_147)">
<path d="M126.875 123.625C126.875 124.66 126.035 125.5 125 125.5C123.965 125.5 123.125 124.66 123.125 123.625C123.125 122.59 123.965 121.75 125 121.75C126.035 121.75 126.875 122.59 126.875 123.625ZM130 121.125V126.125C130 126.815 129.44 127.375 128.75 127.375H121.25C120.56 127.375 120 126.815 120 126.125V121.125C120 120.435 120.56 119.875 121.25 119.875H123.125V119.25C123.125 118.905 123.405 118.625 123.75 118.625H126.25C126.596 118.625 126.875 118.905 126.875 119.25V119.875H128.75C129.44 119.875 130 120.435 130 121.125ZM127.5 123.625C127.5 122.247 126.378 121.125 125 121.125C123.622 121.125 122.5 122.247 122.5 123.625C122.5 125.003 123.622 126.125 125 126.125C126.378 126.125 127.5 125.003 127.5 123.625ZM129.375 120.5H127.5V121.75H129.375V120.5Z" fill="white"/>
</g>
<defs>
<clipPath id="clip0_138_147">
<rect width="10" height="10" fill="white" transform="translate(120 118)"/>
</clipPath>
</defs>
</svg>
