<svg width="22" height="22" viewBox="0 0 22 22" fill="none" xmlns="http://www.w3.org/2000/svg">
<path d="M1.32438 19.2027C1.23095 19.2033 1.13844 19.1841 1.05296 19.1463C0.967477 19.1086 0.890948 19.0532 0.828405 18.9838C0.765861 18.9143 0.718719 18.8325 0.690077 18.7435C0.661435 18.6546 0.651943 18.5606 0.662223 18.4677L1.17209 13.8326C1.19024 13.6844 1.25791 13.5468 1.36411 13.4419L12.1971 2.60892C12.3939 2.41171 12.6277 2.25526 12.885 2.14851C13.1424 2.04176 13.4183 1.98681 13.6969 1.98681C13.9755 1.98681 14.2514 2.04176 14.5087 2.14851C14.7661 2.25526 14.9999 2.41171 15.1967 2.60892L17.256 4.66825C17.4532 4.86506 17.6097 5.09884 17.7164 5.35619C17.8232 5.61355 17.8781 5.88943 17.8781 6.16804C17.8781 6.44666 17.8232 6.72254 17.7164 6.9799C17.6097 7.23725 17.4532 7.47103 17.256 7.66784L6.42966 18.4942C6.32479 18.6004 6.18712 18.6681 6.03898 18.6862L1.40384 19.1961L1.32438 19.2027ZM2.46993 14.2034L2.07263 17.7923L5.66155 17.395L16.3224 6.73419C16.3964 6.66037 16.4552 6.57265 16.4953 6.47607C16.5354 6.37949 16.5561 6.27593 16.5561 6.17135C16.5561 6.06678 16.5354 5.96322 16.4953 5.86664C16.4552 5.77006 16.3964 5.68234 16.3224 5.60852L14.2564 3.54257C14.1826 3.46849 14.0949 3.40972 13.9983 3.36961C13.9017 3.32951 13.7982 3.30886 13.6936 3.30886C13.589 3.30886 13.4854 3.32951 13.3889 3.36961C13.2923 3.40972 13.2046 3.46849 13.1307 3.54257L2.46993 14.2034Z" fill="#00A7FF"/>
<path d="M15.23 9.40933C15.1429 9.40983 15.0565 9.39313 14.9758 9.36018C14.8951 9.32722 14.8218 9.27867 14.7599 9.2173L10.6479 5.09203C10.5861 5.03029 10.5371 4.957 10.5037 4.87633C10.4703 4.79566 10.4531 4.70921 10.4531 4.6219C10.4531 4.53458 10.4703 4.44813 10.5037 4.36746C10.5371 4.28679 10.5861 4.2135 10.6479 4.15176C10.7096 4.09002 10.7829 4.04105 10.8636 4.00763C10.9442 3.97422 11.0307 3.95702 11.118 3.95702C11.2053 3.95702 11.2918 3.97422 11.3724 4.00763C11.4531 4.04105 11.5264 4.09002 11.5881 4.15176L15.7134 8.27703C15.7755 8.33859 15.8247 8.41182 15.8583 8.49251C15.892 8.5732 15.9093 8.65975 15.9093 8.74717C15.9093 8.83458 15.892 8.92113 15.8583 9.00182C15.8247 9.08251 15.7755 9.15574 15.7134 9.2173C15.65 9.28028 15.5744 9.32976 15.4914 9.36276C15.4083 9.39576 15.3194 9.4116 15.23 9.40933Z" fill="#00A7FF"/>
<path d="M10.6512 8.27945L5.49609 13.4345L6.43253 14.371L11.5876 9.21589L10.6512 8.27945Z" fill="#00A7FF"/>
<path d="M19.8652 19.2027H9.27056C9.09494 19.2027 8.92652 19.1329 8.80234 19.0088C8.67816 18.8846 8.6084 18.7162 8.6084 18.5405C8.6084 18.3649 8.67816 18.1965 8.80234 18.0723C8.92652 17.9481 9.09494 17.8784 9.27056 17.8784H19.8652C20.0408 17.8784 20.2092 17.9481 20.3334 18.0723C20.4576 18.1965 20.5273 18.3649 20.5273 18.5405C20.5273 18.7162 20.4576 18.8846 20.3334 19.0088C20.2092 19.1329 20.0408 19.2027 19.8652 19.2027Z" fill="#00A7FF"/>
</svg>
