<svg width="17" height="17" viewBox="0 0 17 17" fill="none" xmlns="http://www.w3.org/2000/svg">
<g clip-path="url(#clip0_133_424)">
<path d="M4.81681 0C4.35101 0 3.96681 0.3842 3.96681 0.85V4.25C3.96681 4.62683 4.53348 4.62967 4.53348 4.25V0.85C4.53348 0.687933 4.65474 0.566667 4.81681 0.566667H16.1501C16.3122 0.566667 16.4335 0.687933 16.4335 0.85V16.15C16.4335 16.3121 16.3122 16.4333 16.1501 16.4333H4.81681C4.65474 16.4333 4.53348 16.3121 4.53348 16.15V12.1833C4.53348 11.8093 3.96681 11.8127 3.96681 12.1833V16.15C3.96681 16.6158 4.35101 17 4.81681 17H16.1501C16.6159 17 17.0001 16.6158 17.0001 16.15V0.85C17.0001 0.3842 16.6159 0 16.1501 0H4.81681ZM2.55014 10.7667C2.80514 10.7667 2.91451 10.4476 2.75074 10.2827L0.684108 8.21667L2.75074 6.1506C3.00121 5.9092 2.60681 5.49327 2.34954 5.7494L0.082875 8.01607C-0.027625 8.12713 -0.027625 8.3062 0.082875 8.41727L2.34954 10.6839C2.40338 10.7389 2.47421 10.7667 2.55014 10.7667ZM9.91681 8.5H1.98348C1.82651 8.5 1.70014 8.37363 1.70014 8.21667C1.70014 8.0597 1.82651 7.93333 1.98348 7.93333H9.91681C10.0738 7.93333 10.2001 8.0597 10.2001 8.21667C10.2001 8.37363 10.0738 8.5 9.91681 8.5Z" fill="#F69223"/>
</g>
<defs>
<clipPath id="clip0_133_424">
<rect width="17" height="17" fill="white"/>
</clipPath>
</defs>
</svg>
