<svg width="17" height="9" viewBox="0 0 17 9" fill="none" xmlns="http://www.w3.org/2000/svg">
<path d="M16.798 5.43775C16.8303 5.49373 16.8513 5.55553 16.8598 5.61964C16.8683 5.68374 16.864 5.74888 16.8473 5.81134C16.8306 5.8738 16.8017 5.93235 16.7624 5.98365C16.723 6.03495 16.6739 6.078 16.6179 6.11033C16.5619 6.14266 16.5001 6.16364 16.436 6.17207C16.3719 6.1805 16.3068 6.17621 16.2443 6.15946C16.1819 6.14271 16.1233 6.11382 16.072 6.07443C16.0208 6.03505 15.9777 5.98595 15.9454 5.92994L14.3496 3.16587C13.3961 3.82744 12.3347 4.31801 11.213 4.61559L11.716 7.46818C11.7387 7.59674 11.7094 7.72903 11.6345 7.83597C11.5596 7.9429 11.4453 8.01571 11.3168 8.03839C11.2884 8.04338 11.2596 8.0459 11.2307 8.04592C11.1151 8.04576 11.0032 8.00491 10.9147 7.93053C10.8262 7.85616 10.7667 7.753 10.7466 7.63913L10.2496 4.821C9.0882 5.00797 7.90432 5.00759 6.74303 4.81987L6.24614 7.6381C6.22605 7.75196 6.16652 7.85512 6.07799 7.9295C5.98947 8.00388 5.87759 8.04473 5.76196 8.04489C5.73312 8.04486 5.70433 8.04235 5.67593 8.03736C5.54737 8.01468 5.43309 7.94187 5.35821 7.83494C5.28334 7.728 5.254 7.59571 5.27666 7.46715L5.77977 4.61372C4.65929 4.31556 3.5992 3.8248 2.64688 3.16339L1.04213 5.94291C0.976822 6.05589 0.869325 6.13831 0.743269 6.17205C0.617214 6.20579 0.482918 6.1881 0.369907 6.12285C0.256896 6.0576 0.174419 5.95015 0.14061 5.82411C0.106801 5.69808 0.124426 5.56377 0.189611 5.45073L1.85781 2.56133C1.26711 2.06528 0.725991 1.51302 0.242083 0.912334C0.160216 0.810782 0.122012 0.680884 0.135863 0.551181C0.149714 0.421477 0.214488 0.302577 0.315953 0.220603C0.417418 0.138629 0.547274 0.100286 0.676992 0.113999C0.806711 0.127712 0.92568 0.192359 1.00776 0.293736C1.5284 0.941528 2.12252 1.52666 2.77816 2.03738C2.78813 2.04435 2.79756 2.0518 2.80686 2.05941C4.43462 3.32118 6.44057 3.99668 8.5 3.97657C10.559 3.99667 12.5645 3.32145 14.192 2.06017C14.2007 2.05324 14.2093 2.04635 14.2185 2.03994C14.8755 1.52863 15.4707 0.942618 15.9922 0.293731C16.0327 0.243378 16.0829 0.201519 16.1396 0.170548C16.1964 0.139577 16.2587 0.120101 16.3231 0.113233C16.3874 0.106366 16.4524 0.112241 16.5144 0.130523C16.5765 0.148805 16.6343 0.179136 16.6846 0.219782C16.7349 0.260427 16.7767 0.31059 16.8076 0.367403C16.8386 0.424215 16.858 0.486562 16.8648 0.550881C16.8716 0.615199 16.8656 0.680228 16.8473 0.742247C16.8289 0.804267 16.7985 0.862062 16.7578 0.912329C16.273 1.51414 15.7308 2.06732 15.1388 2.56405L16.798 5.43775Z" fill="#798994"/>
</svg>
