<svg width="21" height="21" viewBox="0 0 21 21" fill="none" xmlns="http://www.w3.org/2000/svg">
<path d="M18.7982 13.4377C18.8305 13.4937 18.8516 13.5555 18.86 13.6196C18.8685 13.6837 18.8642 13.7489 18.8475 13.8113C18.8308 13.8738 18.8019 13.9323 18.7626 13.9836C18.7232 14.0349 18.6741 14.078 18.6182 14.1103C18.5622 14.1426 18.5003 14.1636 18.4362 14.1721C18.3721 14.1805 18.307 14.1762 18.2445 14.1595C18.1821 14.1427 18.1235 14.1138 18.0723 14.0744C18.021 14.035 17.978 13.9859 17.9457 13.9299L16.3498 11.1659C15.3963 11.8274 14.3349 12.318 13.2132 12.6156L13.7163 15.4682C13.7389 15.5967 13.7096 15.729 13.6347 15.836C13.5598 15.9429 13.4455 16.0157 13.317 16.0384C13.2886 16.0434 13.2598 16.0459 13.231 16.0459C13.1153 16.0458 13.0035 16.0049 12.9149 15.9305C12.8264 15.8561 12.7669 15.753 12.7468 15.6391L12.2498 12.821C11.0884 13.008 9.90454 13.0076 8.74325 12.8199L8.24636 15.6381C8.22627 15.752 8.16674 15.8551 8.07822 15.9295C7.98969 16.0039 7.87781 16.0447 7.76218 16.0449C7.73334 16.0449 7.70456 16.0423 7.67615 16.0374C7.54759 16.0147 7.43331 15.9419 7.35843 15.8349C7.28356 15.728 7.25423 15.5957 7.27689 15.4671L7.77999 12.6137C6.65951 12.3155 5.59942 11.8248 4.6471 11.1634L3.04235 13.9429C2.97704 14.0559 2.86955 14.1383 2.74349 14.172C2.61744 14.2058 2.48314 14.1881 2.37013 14.1228C2.25712 14.0576 2.17464 13.9501 2.14083 13.8241C2.10702 13.6981 2.12465 13.5638 2.18983 13.4507L3.85803 10.5613C3.26733 10.0653 2.72621 9.51301 2.2423 8.91233C2.16044 8.81077 2.12223 8.68088 2.13608 8.55117C2.14994 8.42147 2.21471 8.30257 2.31617 8.2206C2.41764 8.13862 2.5475 8.10028 2.67721 8.11399C2.80693 8.1277 2.9259 8.19235 3.00798 8.29373C3.52863 8.94152 4.12274 9.52666 4.77838 10.0374C4.78835 10.0443 4.79778 10.0518 4.80708 10.0594C6.43484 11.3212 8.44079 11.9967 10.5002 11.9766C12.5592 11.9967 14.5647 11.3214 16.1923 10.0602C16.2009 10.0532 16.2096 10.0463 16.2187 10.0399C16.8757 9.52862 17.4709 8.94261 17.9924 8.29372C18.033 8.24337 18.0831 8.20151 18.1399 8.17054C18.1966 8.13957 18.259 8.12009 18.3233 8.11323C18.3876 8.10636 18.4526 8.11223 18.5147 8.13052C18.5767 8.1488 18.6345 8.17913 18.6848 8.21977C18.7351 8.26042 18.777 8.31058 18.8079 8.36739C18.8388 8.42421 18.8582 8.48655 18.865 8.55087C18.8718 8.61519 18.8658 8.68022 18.8475 8.74224C18.8291 8.80426 18.7988 8.86205 18.7581 8.91232C18.2733 9.51413 17.731 10.0673 17.139 10.564L18.7982 13.4377Z" fill="#798994"/>
</svg>
