<svg width="11" height="11" viewBox="0 0 11 11" fill="none" xmlns="http://www.w3.org/2000/svg">
<path d="M1.44661 1.68024C1.26864 1.68024 1.09467 1.73305 0.946728 1.83199C0.798788 1.93092 0.683531 2.07152 0.615551 2.236C0.54757 2.40048 0.529924 2.58143 0.564845 2.75594C0.599766 2.93045 0.685685 3.09068 0.811722 3.21633C0.93776 3.34198 1.09825 3.42741 1.27287 3.4618C1.44748 3.49618 1.62838 3.47798 1.79265 3.4095C1.95692 3.34101 2.09717 3.22533 2.19565 3.07708C2.29413 2.92884 2.3464 2.75471 2.34586 2.57674C2.34586 2.45878 2.32258 2.34198 2.27736 2.23303C2.23213 2.12408 2.16585 2.02513 2.08231 1.94185C1.99877 1.85856 1.89962 1.79258 1.79053 1.74769C1.68144 1.7028 1.56457 1.67988 1.44661 1.68024ZM1.44661 2.92599C1.37753 2.92599 1.31001 2.90551 1.25258 2.86713C1.19514 2.82876 1.15038 2.77421 1.12394 2.71039C1.09751 2.64658 1.09059 2.57635 1.10407 2.50861C1.11755 2.44086 1.15081 2.37863 1.19965 2.32978C1.2485 2.28094 1.31073 2.24768 1.37847 2.2342C1.44622 2.22073 1.51644 2.22764 1.58026 2.25408C1.64408 2.28051 1.69862 2.32527 1.737 2.38271C1.77538 2.44014 1.79586 2.50767 1.79586 2.57674C1.79586 2.62261 1.78683 2.66802 1.76927 2.71039C1.75172 2.75277 1.726 2.79127 1.69357 2.8237C1.66114 2.85613 1.62263 2.88185 1.58026 2.89941C1.53789 2.91696 1.49247 2.92599 1.44661 2.92599Z" fill="#798994"/>
<path d="M1.44648 4.6035C1.26929 4.60405 1.09623 4.65709 0.949168 4.75593C0.802101 4.85477 0.687623 4.99497 0.62019 5.15883C0.552758 5.32269 0.535396 5.50286 0.570297 5.67658C0.605199 5.8503 0.690799 6.00979 0.816285 6.13489C0.941772 6.25999 1.10152 6.34511 1.27535 6.37947C1.44917 6.41384 1.62929 6.39593 1.79294 6.328C1.9566 6.26006 2.09645 6.14515 2.19484 5.99779C2.29322 5.85042 2.34573 5.6772 2.34573 5.5C2.34574 5.38204 2.32246 5.26524 2.27723 5.15629C2.23201 5.04734 2.16572 4.94839 2.08218 4.86511C1.99865 4.78183 1.89949 4.71585 1.79041 4.67096C1.68132 4.62606 1.56445 4.60314 1.44648 4.6035ZM1.44648 5.84925C1.37741 5.84925 1.30989 5.82877 1.25245 5.7904C1.19502 5.75202 1.15025 5.69747 1.12382 5.63366C1.09739 5.56984 1.09047 5.49962 1.10395 5.43187C1.11742 5.36412 1.15068 5.30189 1.19953 5.25305C1.24837 5.2042 1.3106 5.17094 1.37835 5.15747C1.4461 5.14399 1.51632 5.15091 1.58014 5.17734C1.64395 5.20377 1.6985 5.24854 1.73688 5.30597C1.77525 5.36341 1.79573 5.43093 1.79573 5.5C1.79573 5.59263 1.75894 5.68146 1.69344 5.74696C1.62794 5.81246 1.53911 5.84925 1.44648 5.84925Z" fill="#798994"/>
<path d="M3.94053 3.03475H10.1748C10.2477 3.03475 10.3177 2.99208 10.3692 2.91612C10.4208 2.84017 10.4498 2.73716 10.4498 2.62975C10.4498 2.52233 10.4208 2.41932 10.3692 2.34337C10.3177 2.26742 10.2477 2.22475 10.1748 2.22475H3.94053C3.86759 2.22475 3.79765 2.26742 3.74607 2.34337C3.6945 2.41932 3.66553 2.52233 3.66553 2.62975C3.66553 2.73716 3.6945 2.84017 3.74607 2.91612C3.79765 2.99208 3.86759 3.03475 3.94053 3.03475Z" fill="#798994"/>
<path d="M10.1748 5.18649H3.94053C3.86759 5.18649 3.79765 5.22916 3.74607 5.30511C3.6945 5.38107 3.66553 5.48408 3.66553 5.59149C3.66553 5.69891 3.6945 5.80192 3.74607 5.87787C3.79765 5.95382 3.86759 5.99649 3.94053 5.99649H10.1748C10.2477 5.99649 10.3177 5.95382 10.3692 5.87787C10.4208 5.80192 10.4498 5.69891 10.4498 5.59149C10.4498 5.48408 10.4208 5.38107 10.3692 5.30511C10.3177 5.22916 10.2477 5.18649 10.1748 5.18649Z" fill="#798994"/>
<path d="M1.44661 7.524C1.26876 7.524 1.0949 7.57674 0.947017 7.67555C0.799136 7.77436 0.683877 7.91481 0.615815 8.07912C0.547753 8.24344 0.529945 8.42425 0.564643 8.59869C0.59934 8.77312 0.684986 8.93335 0.810748 9.05912C0.93651 9.18488 1.09674 9.27053 1.27118 9.30522C1.44562 9.33992 1.62643 9.32211 1.79074 9.25405C1.95506 9.18599 2.0955 9.07073 2.19431 8.92285C2.29312 8.77497 2.34586 8.60111 2.34586 8.42325C2.34586 8.18476 2.25112 7.95603 2.08248 7.78739C1.91384 7.61874 1.68511 7.524 1.44661 7.524ZM1.44661 8.7725C1.37754 8.7725 1.31001 8.75202 1.25258 8.71364C1.19515 8.67527 1.15038 8.62072 1.12395 8.5569C1.09751 8.49309 1.0906 8.42286 1.10407 8.35512C1.11755 8.28737 1.15081 8.22514 1.19966 8.17629C1.2485 8.12745 1.31073 8.09419 1.37848 8.08071C1.44623 8.06724 1.51645 8.07415 1.58027 8.10059C1.64408 8.12702 1.69863 8.17178 1.737 8.22922C1.77538 8.28665 1.79586 8.35418 1.79586 8.42325C1.79586 8.51588 1.75907 8.60471 1.69357 8.67021C1.62807 8.73571 1.53924 8.7725 1.44661 8.7725Z" fill="#798994"/>
<path d="M10.1748 8.14825H3.94053C3.86759 8.14825 3.79765 8.19092 3.74607 8.26688C3.6945 8.34283 3.66553 8.44584 3.66553 8.55325C3.66553 8.66067 3.6945 8.76368 3.74607 8.83963C3.79765 8.91559 3.86759 8.95825 3.94053 8.95825H10.1748C10.2477 8.95825 10.3177 8.91559 10.3692 8.83963C10.4208 8.76368 10.4498 8.66067 10.4498 8.55325C10.4498 8.44584 10.4208 8.34283 10.3692 8.26688C10.3177 8.19092 10.2477 8.14825 10.1748 8.14825Z" fill="#798994"/>
</svg>
