<svg width="17" height="17" viewBox="0 0 17 17" fill="none" xmlns="http://www.w3.org/2000/svg">
<g clip-path="url(#clip0_133_301)">
<mask id="path-1-inside-1_133_301" fill="white">
<path d="M8.49985 0.34C6.88595 0.34 5.3083 0.818576 3.96639 1.71521C2.62449 2.61184 1.5786 3.88626 0.96099 5.3773C0.343379 6.86835 0.181784 8.50905 0.49664 10.0919C0.811495 11.6748 1.58866 13.1288 2.72986 14.27C3.87105 15.4112 5.32503 16.1884 6.90791 16.5032C8.4908 16.8181 10.1315 16.6565 11.6225 16.0389C13.1136 15.4212 14.388 14.3754 15.2846 13.0335C16.1813 11.6915 16.6598 10.1139 16.6598 8.5C16.6598 6.33583 15.8001 4.26031 14.2698 2.73001C12.7395 1.19971 10.664 0.34 8.49985 0.34ZM8.49985 15.98C7.02044 15.98 5.57426 15.5413 4.34418 14.7194C3.1141 13.8975 2.15537 12.7293 1.58923 11.3625C1.02308 9.99568 0.874956 8.4917 1.16357 7.04073C1.45219 5.58975 2.16459 4.25694 3.21069 3.21084C4.25679 2.16474 5.58959 1.45234 7.04057 1.16373C8.49155 0.875109 9.99553 1.02324 11.3623 1.58938C12.7291 2.15552 13.8973 3.11426 14.7192 4.34434C15.5412 5.57442 15.9798 7.0206 15.9798 8.5C15.9798 10.4838 15.1918 12.3864 13.789 13.7892C12.3862 15.1919 10.4837 15.98 8.49985 15.98Z"/>
</mask>
<path d="M8.49985 0.34C6.88595 0.34 5.3083 0.818576 3.96639 1.71521C2.62449 2.61184 1.5786 3.88626 0.96099 5.3773C0.343379 6.86835 0.181784 8.50905 0.49664 10.0919C0.811495 11.6748 1.58866 13.1288 2.72986 14.27C3.87105 15.4112 5.32503 16.1884 6.90791 16.5032C8.4908 16.8181 10.1315 16.6565 11.6225 16.0389C13.1136 15.4212 14.388 14.3754 15.2846 13.0335C16.1813 11.6915 16.6598 10.1139 16.6598 8.5C16.6598 6.33583 15.8001 4.26031 14.2698 2.73001C12.7395 1.19971 10.664 0.34 8.49985 0.34ZM8.49985 15.98C7.02044 15.98 5.57426 15.5413 4.34418 14.7194C3.1141 13.8975 2.15537 12.7293 1.58923 11.3625C1.02308 9.99568 0.874956 8.4917 1.16357 7.04073C1.45219 5.58975 2.16459 4.25694 3.21069 3.21084C4.25679 2.16474 5.58959 1.45234 7.04057 1.16373C8.49155 0.875109 9.99553 1.02324 11.3623 1.58938C12.7291 2.15552 13.8973 3.11426 14.7192 4.34434C15.5412 5.57442 15.9798 7.0206 15.9798 8.5C15.9798 10.4838 15.1918 12.3864 13.789 13.7892C12.3862 15.1919 10.4837 15.98 8.49985 15.98Z" fill="#D980EA"/>
<path d="M8.49985 0.34V-0.66V0.34ZM16.6598 8.5H17.6598H16.6598ZM8.49985 15.98V16.98V15.98ZM15.9798 8.5H16.9798H15.9798ZM8.49985 -0.66C6.68817 -0.66 4.91718 -0.122775 3.41082 0.883739L4.52196 2.54668C5.69942 1.75993 7.08373 1.34 8.49985 1.34V-0.66ZM3.41082 0.883739C1.90447 1.89025 0.73041 3.32085 0.0371109 4.99462L1.88487 5.75999C2.42679 4.45167 3.34451 3.33343 4.52196 2.54668L3.41082 0.883739ZM0.0371109 4.99462C-0.656188 6.66839 -0.837586 8.51016 -0.484146 10.287L1.47742 9.89685C1.20115 8.50794 1.34295 7.06831 1.88487 5.75999L0.0371109 4.99462ZM-0.484146 10.287C-0.130705 12.0639 0.7417 13.6961 2.02275 14.9771L3.43696 13.5629C2.43562 12.5615 1.7537 11.2858 1.47742 9.89685L-0.484146 10.287ZM2.02275 14.9771C3.3038 16.2581 4.93595 17.1306 6.71282 17.484L7.103 15.5224C5.7141 15.2462 4.43831 14.5642 3.43696 13.5629L2.02275 14.9771ZM6.71282 17.484C8.48969 17.8374 10.3315 17.656 12.0052 16.9627L11.2399 15.115C9.93154 15.6569 8.49191 15.7987 7.103 15.5224L6.71282 17.484ZM12.0052 16.9627C13.679 16.2694 15.1096 15.0954 16.1161 13.589L14.4532 12.4779C13.6664 13.6553 12.5482 14.5731 11.2399 15.115L12.0052 16.9627ZM16.1161 13.589C17.1226 12.0827 17.6598 10.3117 17.6598 8.5H15.6598C15.6598 9.91611 15.2399 11.3004 14.4532 12.4779L16.1161 13.589ZM17.6598 8.5C17.6598 6.07062 16.6948 3.74074 14.9769 2.0229L13.5627 3.43712C14.9055 4.77988 15.6598 6.60105 15.6598 8.5H17.6598ZM14.9769 2.0229C13.2591 0.305069 10.9292 -0.66 8.49985 -0.66V1.34C10.3988 1.34 12.22 2.09436 13.5627 3.43712L14.9769 2.0229ZM8.49985 14.98C7.21822 14.98 5.96538 14.6 4.89975 13.8879L3.78861 15.5509C5.18314 16.4827 6.82266 16.98 8.49985 16.98V14.98ZM4.89975 13.8879C3.83412 13.1759 3.00356 12.1639 2.51311 10.9798L0.665349 11.7452C1.30718 13.2947 2.39408 14.6191 3.78861 15.5509L4.89975 13.8879ZM2.51311 10.9798C2.02265 9.79572 1.89433 8.49281 2.14436 7.23582L0.182788 6.84563C-0.144414 8.49059 0.0235178 10.1956 0.665349 11.7452L2.51311 10.9798ZM2.14436 7.23582C2.39439 5.97882 3.01155 4.82419 3.9178 3.91795L2.50358 2.50374C1.31763 3.68968 0.509991 5.20068 0.182788 6.84563L2.14436 7.23582ZM3.9178 3.91795C4.82404 3.0117 5.97867 2.39454 7.23566 2.14451L6.84548 0.182941C5.20052 0.510144 3.68953 1.31779 2.50358 2.50374L3.9178 3.91795ZM7.23566 2.14451C8.49266 1.89448 9.79557 2.0228 10.9796 2.51326L11.745 0.665502C10.1955 0.0236706 8.49044 -0.144262 6.84548 0.182941L7.23566 2.14451ZM10.9796 2.51326C12.1637 3.00372 13.1757 3.83427 13.8878 4.89991L15.5507 3.78877C14.6189 2.39424 13.2945 1.30733 11.745 0.665502L10.9796 2.51326ZM13.8878 4.89991C14.5998 5.96554 14.9798 7.21838 14.9798 8.5H16.9798C16.9798 6.82282 16.4825 5.18329 15.5507 3.78877L13.8878 4.89991ZM14.9798 8.5C14.9798 10.2186 14.2971 11.8668 13.0819 13.0821L14.4961 14.4963C16.0864 12.906 16.9798 10.749 16.9798 8.5H14.9798ZM13.0819 13.0821C11.8667 14.2973 10.2185 14.98 8.49985 14.98V16.98C10.7489 16.98 12.9058 16.0866 14.4961 14.4963L13.0819 13.0821Z" fill="#D980EA" mask="url(#path-1-inside-1_133_301)"/>
<path d="M8.50008 8.6394C7.32782 8.6394 6.20358 9.10508 5.37467 9.93399C4.54576 10.7629 4.08008 11.8871 4.08008 13.0594C4.08008 13.1496 4.1159 13.2361 4.17966 13.2998C4.24342 13.3636 4.3299 13.3994 4.42008 13.3994C4.51025 13.3994 4.59673 13.3636 4.66049 13.2998C4.72426 13.2361 4.76008 13.1496 4.76008 13.0594C4.76008 12.0675 5.15411 11.1162 5.8555 10.4148C6.55688 9.71343 7.50817 9.3194 8.50008 9.3194C9.49199 9.3194 10.4433 9.71343 11.1447 10.4148C11.846 11.1162 12.2401 12.0675 12.2401 13.0594C12.2401 13.1496 12.2759 13.2361 12.3397 13.2998C12.4034 13.3636 12.4899 13.3994 12.5801 13.3994C12.6703 13.3994 12.7567 13.3636 12.8205 13.2998C12.8843 13.2361 12.9201 13.1496 12.9201 13.0594C12.9201 12.479 12.8058 11.9042 12.5836 11.3679C12.3615 10.8317 12.0359 10.3444 11.6255 9.93399C11.2151 9.52355 10.7278 9.19798 10.1915 8.97585C9.65528 8.75373 9.08052 8.6394 8.50008 8.6394Z" fill="#D980EA"/>
<path d="M8.50009 8.0614C8.81297 8.05304 9.12112 7.98304 9.40691 7.85542C9.6927 7.72781 9.95051 7.54507 10.1656 7.31768C10.3807 7.09029 10.5488 6.82272 10.6603 6.53027C10.7718 6.23783 10.8245 5.92626 10.8155 5.6134C10.825 5.30026 10.7726 4.98833 10.6613 4.69549C10.55 4.40265 10.3819 4.13467 10.1668 3.90692C9.9517 3.67917 9.69373 3.49613 9.40772 3.3683C9.1217 3.24046 8.81326 3.17036 8.50009 3.162C8.18692 3.17036 7.87848 3.24046 7.59246 3.3683C7.30645 3.49613 7.04848 3.67917 6.83337 3.90692C6.61825 4.13467 6.45022 4.40265 6.3389 4.69549C6.22759 4.98833 6.17518 5.30026 6.18469 5.6134C6.17564 5.92626 6.22838 6.23783 6.3399 6.53027C6.45142 6.82272 6.61953 7.09029 6.8346 7.31768C7.04967 7.54507 7.30748 7.72781 7.59327 7.85542C7.87906 7.98304 8.18721 8.05304 8.50009 8.0614ZM8.50009 3.842C8.72399 3.85031 8.94403 3.9028 9.14757 3.99644C9.35111 4.09008 9.53413 4.22303 9.68611 4.38765C9.83809 4.55227 9.95604 4.74531 10.0332 4.95567C10.1103 5.16603 10.1451 5.38956 10.1355 5.6134C10.1446 5.83697 10.1095 6.06013 10.0321 6.27009C9.95482 6.48006 9.8368 6.67269 9.68487 6.83695C9.53293 7.0012 9.35006 7.13385 9.14675 7.22728C8.94344 7.32071 8.72369 7.37308 8.50009 7.3814C8.27649 7.37308 8.05674 7.32071 7.85343 7.22728C7.65012 7.13385 7.46725 7.0012 7.31531 6.83695C7.16338 6.67269 7.04536 6.48006 6.96803 6.27009C6.8907 6.06013 6.85559 5.83697 6.86469 5.6134C6.85513 5.38956 6.8899 5.16603 6.96702 4.95567C7.04414 4.74531 7.16209 4.55227 7.31407 4.38765C7.46605 4.22303 7.64907 4.09008 7.85261 3.99644C8.05615 3.9028 8.2762 3.85031 8.50009 3.842Z" fill="#D980EA"/>
</g>
<defs>
<clipPath id="clip0_133_301">
<rect width="17" height="17" fill="white"/>
</clipPath>
</defs>
</svg>
