<svg width="19" height="19" viewBox="0 0 19 19" fill="none" xmlns="http://www.w3.org/2000/svg">
<g clip-path="url(#clip0_133_342)">
<path d="M9.50563 7.74277C9.2959 7.74277 9.15234 7.88261 9.15234 8.09605V11.6142C9.15234 11.8239 9.29218 11.9674 9.50563 11.9674C9.7191 11.9674 9.85895 11.8276 9.85895 11.6142V8.09605C9.85523 7.88265 9.71539 7.74277 9.50563 7.74277Z" fill="#3E9457"/>
<path d="M9.50563 12.6666C9.2959 12.6666 9.15234 12.8065 9.15234 13.02C9.15234 13.2334 9.29218 13.3732 9.50563 13.3732C9.7191 13.3732 9.85895 13.2334 9.85895 13.02C9.85895 12.8065 9.71539 12.6666 9.50563 12.6666Z" fill="#3E9457"/>
<path d="M16.895 8.72538C16.895 6.61304 15.1359 4.92391 13.0236 4.92391C12.2508 4.92391 11.6179 5.13367 10.9812 5.48696C10.0686 4.29095 8.65913 3.51814 7.03992 3.51814C4.29462 3.51814 2.11237 5.7004 2.11237 8.44569C2.11237 8.51562 2.11237 8.65546 2.11237 8.72538C0.846406 9.28838 0 10.4844 0 11.9638C0 13.9326 1.54929 15.4819 3.5181 15.4819H15.4819C17.4507 15.4819 19 13.9326 19 11.9638C19.0073 10.4844 18.1609 9.28838 16.895 8.72538ZM15.4855 14.779H3.52178C1.97249 14.779 0.706565 13.5131 0.706565 11.9638C0.706565 10.6279 1.62289 9.50186 2.88882 9.2185C2.8189 8.93514 2.8189 8.72538 2.8189 8.44569C2.8189 6.1236 4.71779 4.22103 7.04357 4.22103C8.66278 4.22103 10.1385 5.13735 10.845 6.54312C11.4081 5.98008 12.1809 5.6268 13.0273 5.6268C14.7863 5.6268 16.1958 7.03257 16.1958 8.7953C16.1958 8.93514 16.1958 9.07498 16.1958 9.2185C17.3918 9.49818 18.3081 10.6242 18.3081 11.9638C18.3008 13.5131 17.0348 14.779 15.4855 14.779Z" fill="#3E9457"/>
</g>
<defs>
<clipPath id="clip0_133_342">
<rect width="19" height="19" fill="white"/>
</clipPath>
</defs>
</svg>
