<svg width="25" height="25" viewBox="0 0 25 25" fill="none" xmlns="http://www.w3.org/2000/svg">
<g clip-path="url(#clip0_118_33)">
<path fill-rule="evenodd" clip-rule="evenodd" d="M15.6018 17.243C14.2788 18.2223 18.3929 14.0152 17.2222 15.6145C17.2515 15.6121 17.1972 15.7008 17.0151 15.9231C17.0151 15.9231 20.1417 19.0285 21.6765 20.609C22.2093 21.1852 21.2479 22.3352 20.5948 21.7348C19.205 20.3863 15.9163 17.0352 15.9112 17.0297L15.6018 17.243Z" fill="#798994"/>
<path d="M11.0075 18.8133C13.0192 18.7938 15.0106 17.9606 16.4426 16.5453C18.1434 14.8645 19.0192 12.3777 18.7137 10.0035C18.1903 5.93516 14.8458 3.17422 10.9575 3.17422C8.00317 3.17422 5.13208 5.02227 3.87271 7.70196C2.90864 9.75352 2.90669 12.2305 3.87271 14.2856C5.1231 16.9465 7.94731 18.7848 10.9071 18.8133C10.9407 18.8133 10.9743 18.8133 11.0075 18.8133ZM10.9153 17.5098C7.91099 17.4809 5.10786 15.1574 4.55044 12.1785C4.15747 10.0785 4.89927 7.80587 6.44458 6.31446C8.24849 4.57266 11.084 3.98946 13.4418 4.97657C15.5512 5.85977 17.1301 7.91055 17.4211 10.1699C17.6704 12.1066 16.9754 14.1363 15.6098 15.5344C14.4118 16.7609 12.7317 17.493 10.9993 17.5098C10.9711 17.5098 10.9434 17.5098 10.9153 17.5098Z" fill="#798994"/>
</g>
<defs>
<clipPath id="clip0_118_33">
<rect width="25" height="25" fill="white"/>
</clipPath>
</defs>
</svg>
