<svg width="19" height="19" viewBox="0 0 19 19" fill="none" xmlns="http://www.w3.org/2000/svg">
<g clip-path="url(#clip0_133_317)">
<path d="M18.1094 10.3906H13.9531C13.8744 10.3906 13.7989 10.4219 13.7432 10.4776C13.6875 10.5333 13.6562 10.6088 13.6562 10.6875V17.8125H11.875V5.64062C11.875 5.56189 11.8437 5.48638 11.788 5.4307C11.7324 5.37503 11.6569 5.34375 11.5781 5.34375H7.42188C7.34314 5.34375 7.26763 5.37503 7.21195 5.4307C7.15628 5.48638 7.125 5.56189 7.125 5.64062V17.8125H5.34375V9.5C5.34375 9.42126 5.31247 9.34575 5.2568 9.29008C5.20112 9.2344 5.12561 9.20312 5.04688 9.20312H0.890625C0.811889 9.20312 0.736378 9.2344 0.680703 9.29008C0.625028 9.34575 0.59375 9.42126 0.59375 9.5V18.1094C0.59375 18.1881 0.625028 18.2636 0.680703 18.3193C0.736378 18.375 0.811889 18.4062 0.890625 18.4062H18.1094C18.1881 18.4062 18.2636 18.375 18.3193 18.3193C18.375 18.2636 18.4062 18.1881 18.4062 18.1094V10.6875C18.4062 10.6088 18.375 10.5333 18.3193 10.4776C18.2636 10.4219 18.1881 10.3906 18.1094 10.3906ZM1.1875 17.8125V9.79688H4.75V17.8125H1.1875ZM7.71875 17.8125V5.9375H11.2812V17.8125H7.71875ZM14.25 17.8125V10.9844H17.8125V17.8125H14.25Z" fill="#F69223"/>
<path d="M2.96876 8.01562C3.25404 8.01642 3.53532 7.94848 3.7888 7.81758C4.04228 7.68667 4.2605 7.49663 4.42499 7.26354C4.58949 7.03046 4.69543 6.76118 4.73384 6.47849C4.77226 6.19581 4.74202 5.90802 4.64569 5.63949L8.11233 3.48914C8.26678 3.68242 8.45993 3.84129 8.67937 3.95555C8.89882 4.06982 9.13973 4.13696 9.38664 4.15267C9.63356 4.16838 9.88103 4.13231 10.1132 4.04678C10.3453 3.96124 10.5571 3.82813 10.7348 3.65598L14.4435 6.6188C14.2412 7.01811 14.1963 7.47885 14.3177 7.90971C14.4391 8.34057 14.7179 8.71008 15.099 8.94503C15.48 9.17997 15.9354 9.26319 16.3749 9.17818C16.8144 9.09318 17.2059 8.84616 17.4718 8.48609C17.7378 8.12601 17.8587 7.67917 17.8107 7.23412C17.7627 6.78906 17.5492 6.37829 17.2126 6.08321C16.876 5.78813 16.4408 5.63028 15.9933 5.64095C15.5458 5.65162 15.1187 5.83004 14.7965 6.14083L11.0878 3.17801C11.2218 2.91496 11.2884 2.62272 11.2815 2.32756C11.2747 2.03241 11.1946 1.74358 11.0484 1.48706C10.9022 1.23054 10.6946 1.01435 10.4442 0.857952C10.1938 0.701549 9.90846 0.609827 9.61382 0.591032C9.31918 0.572237 9.02448 0.626957 8.75623 0.750274C8.48798 0.873591 8.25458 1.06164 8.07701 1.29751C7.89944 1.53338 7.78328 1.80969 7.73895 2.10158C7.69463 2.39347 7.72354 2.69181 7.82308 2.96976L4.35644 5.12023C4.16795 4.88549 3.92303 4.70238 3.64455 4.588C3.36608 4.47363 3.06315 4.43172 2.76409 4.46621C2.46502 4.5007 2.17958 4.61045 1.93445 4.78521C1.68932 4.95996 1.4925 5.19402 1.36239 5.4655C1.23228 5.73698 1.17312 6.03701 1.19045 6.33756C1.20778 6.63811 1.30103 6.92935 1.46149 7.18408C1.62194 7.4388 1.84436 7.64868 2.10796 7.7941C2.37155 7.93953 2.66771 8.01574 2.96876 8.01562ZM16.0313 6.23437C16.2661 6.23437 16.4957 6.30402 16.691 6.4345C16.8863 6.56499 17.0385 6.75045 17.1284 6.96744C17.2182 7.18442 17.2418 7.42319 17.1959 7.65354C17.1501 7.88389 17.037 8.09549 16.8709 8.26156C16.7049 8.42764 16.4933 8.54074 16.2629 8.58656C16.0326 8.63237 15.7938 8.60886 15.5768 8.51898C15.3598 8.4291 15.1744 8.2769 15.0439 8.08161C14.9134 7.88633 14.8438 7.65674 14.8438 7.42187C14.8441 7.10704 14.9693 6.8052 15.192 6.58257C15.4146 6.35995 15.7164 6.23473 16.0313 6.23437ZM9.50001 1.1875C9.73487 1.1875 9.96447 1.25714 10.1597 1.38763C10.355 1.51811 10.5072 1.70357 10.5971 1.92056C10.687 2.13755 10.7105 2.37631 10.6647 2.60667C10.6189 2.83702 10.5058 3.04861 10.3397 3.21469C10.1736 3.38076 9.96203 3.49386 9.73168 3.53968C9.50133 3.5855 9.26256 3.56198 9.04557 3.4721C8.82859 3.38223 8.64312 3.23002 8.51264 3.03474C8.38216 2.83945 8.31251 2.60986 8.31251 2.375C8.31286 2.06016 8.43809 1.75832 8.66071 1.5357C8.88333 1.31308 9.18517 1.18785 9.50001 1.1875ZM2.96876 5.04687C3.20362 5.04687 3.43322 5.11652 3.6285 5.247C3.82378 5.37749 3.97599 5.56295 4.06587 5.77994C4.15575 5.99692 4.17926 6.23569 4.13344 6.46604C4.08762 6.69639 3.97452 6.90799 3.80845 7.07406C3.64237 7.24014 3.43078 7.35324 3.20043 7.39906C2.97008 7.44488 2.73131 7.42136 2.51432 7.33148C2.29734 7.2416 2.11187 7.0894 1.98139 6.89411C1.85091 6.69883 1.78126 6.46924 1.78126 6.23437C1.78161 5.91954 1.90684 5.6177 2.12946 5.39507C2.35208 5.17245 2.65392 5.04723 2.96876 5.04687Z" fill="#F69223"/>
</g>
<defs>
<clipPath id="clip0_133_317">
<rect width="19" height="19" fill="white"/>
</clipPath>
</defs>
</svg>
