<svg width="17" height="17" viewBox="0 0 17 17" fill="none" xmlns="http://www.w3.org/2000/svg">
<g clip-path="url(#clip0_133_405)">
<path d="M4.77942 17C4.25619 17 3.93237 16.8925 3.90202 16.882C3.64876 16.7943 3.50968 16.5221 3.58702 16.2653L4.37014 13.6651C2.06476 12.3226 0.649414 9.95156 0.649414 7.38444C0.649414 3.31274 4.17118 0 8.5 0C12.8288 0 16.3506 3.31274 16.3506 7.38444C16.3506 11.3668 13.0625 14.5881 8.84624 14.7598C8.78204 14.7725 8.71393 14.7725 8.64478 14.7566L8.62032 14.7512C8.37447 14.6959 8.20805 14.4662 8.23226 14.2154C8.25635 13.9644 8.46354 13.7709 8.7155 13.7636C12.4361 13.6563 15.3505 10.8543 15.3505 7.38448C15.3505 3.86417 12.2774 1.00014 8.5 1.00014C4.72264 1.00014 1.64948 3.86409 1.64948 7.38444C1.64948 9.7091 3.00819 11.8522 5.19534 12.9773C5.40056 13.0828 5.50683 13.3151 5.4525 13.5396C5.44796 13.5584 5.44234 13.5766 5.43582 13.5946L4.71038 16.0034C5.22435 16.0133 6.11102 15.8888 7.16032 15.1043C7.38129 14.9392 7.69499 14.9843 7.8601 15.2054C8.02547 15.4268 7.9803 15.74 7.75904 15.9054C6.55769 16.8036 5.48665 17 4.77942 17Z" fill="#3182B1"/>
<path d="M8.5002 5.35433H4.06603C3.84506 5.35433 3.66602 5.17514 3.66602 4.95432C3.66602 4.73346 3.84506 4.55431 4.06603 4.55431H8.5002C8.72117 4.55431 8.90021 4.7335 8.90021 4.95432C8.90025 5.17514 8.72121 5.35433 8.5002 5.35433Z" fill="#3182B1"/>
<path d="M8.5002 7.82742H4.06603C3.84506 7.82742 3.66602 7.64823 3.66602 7.42737C3.66602 7.20651 3.84506 7.02736 4.06603 7.02736H8.5002C8.72117 7.02736 8.90021 7.20655 8.90021 7.42737C8.90025 7.64823 8.72121 7.82742 8.5002 7.82742Z" fill="#3182B1"/>
<path d="M8.5002 10.3005H4.06603C3.84506 10.3005 3.66602 10.1213 3.66602 9.9005C3.66602 9.67968 3.84506 9.50049 4.06603 9.50049H8.5002C8.72117 9.50049 8.90021 9.67968 8.90021 9.9005C8.90021 10.1213 8.72121 10.3005 8.5002 10.3005Z" fill="#3182B1"/>
<path d="M10.8998 6.15427C10.8998 6.21042 10.8889 6.26274 10.8674 6.31104C10.8456 6.35956 10.8169 6.4022 10.7813 6.43903C10.7454 6.47604 10.7034 6.50483 10.6551 6.52516C10.6065 6.54568 10.5542 6.55577 10.4983 6.55577C10.3836 6.55577 10.2886 6.51753 10.2133 6.44104C10.1382 6.36455 10.1006 6.26896 10.1006 6.15423C10.1006 5.89945 10.1497 5.65975 10.2479 5.43531C10.3459 5.2111 10.4791 5.01467 10.6474 4.84643C10.8156 4.67819 11.0119 4.54573 11.2363 4.44872C11.4605 4.35191 11.699 4.30342 11.9514 4.30342C12.2037 4.30342 12.442 4.35313 12.6664 4.45256C12.8907 4.55199 13.0871 4.68582 13.2553 4.85406C13.4236 5.0223 13.5568 5.21873 13.6548 5.44295C13.7531 5.66734 13.8021 5.90444 13.8021 6.15419C13.8021 6.65896 13.6198 7.09751 13.2553 7.46963L12.6549 8.02411C12.4509 8.22817 12.349 8.45119 12.349 8.69332C12.349 8.80805 12.3114 8.90304 12.2363 8.97811C12.161 9.05337 12.0661 9.09102 11.9513 9.09102C11.8366 9.09102 11.741 9.05337 11.6645 8.97811C11.588 8.90304 11.5498 8.80805 11.5498 8.69332C11.5498 8.23443 11.7319 7.82287 12.0966 7.45816L12.697 6.89985C12.9009 6.68834 13.0029 6.43977 13.0029 6.15419C13.0029 6.0115 12.9747 5.87644 12.9188 5.74886C12.8626 5.62147 12.7869 5.50997 12.6911 5.41416C12.5957 5.31876 12.4841 5.2429 12.3566 5.18675C12.229 5.13078 12.094 5.10263 11.9513 5.10263C11.806 5.10263 11.6695 5.13 11.5421 5.18474C11.4145 5.23966 11.3032 5.31436 11.2074 5.40854C11.112 5.50294 11.0368 5.61383 10.982 5.74122C10.9272 5.86888 10.8998 6.00655 10.8998 6.15427Z" fill="#3182B1"/>
<path d="M12.4942 9.94143C12.4942 10.092 12.4413 10.22 12.3356 10.3258C12.2298 10.4315 12.1015 10.4844 11.9512 10.4844C11.8007 10.4844 11.6727 10.4315 11.5668 10.3258C11.4612 10.22 11.4082 10.092 11.4082 9.94143C11.4082 9.7911 11.4611 9.66289 11.5668 9.55702C11.6727 9.45138 11.8007 9.39842 11.9512 9.39842C12.1015 9.39842 12.2298 9.45134 12.3356 9.55702C12.4413 9.66285 12.4942 9.79106 12.4942 9.94143Z" fill="#3182B1"/>
</g>
<defs>
<clipPath id="clip0_133_405">
<rect width="17" height="17" fill="white"/>
</clipPath>
</defs>
</svg>
