<svg width="18" height="18" viewBox="0 0 18 18" fill="none" xmlns="http://www.w3.org/2000/svg">
<path d="M12.6003 18H5.31027C3.82527 18 2.65527 16.785 2.65527 15.345V7.2C2.65527 6.93 2.83527 6.75 3.10527 6.75C3.37527 6.75 3.55527 6.93 3.55527 7.2V15.345C3.55527 16.335 4.36527 17.1 5.31027 17.1H12.6003C13.5903 17.1 14.3553 16.29 14.3553 15.345V7.2C14.3553 6.93 14.5353 6.75 14.8053 6.75C15.0753 6.75 15.2553 6.93 15.2553 7.2V15.345C15.2553 16.785 14.0403 18 12.6003 18Z" fill="#F69223"/>
<path d="M14.9851 2.205H11.5651C11.3401 0.945 10.2601 0 8.95508 0C7.65008 0 6.57008 0.945 6.34508 2.205H2.92508C1.89008 2.205 1.08008 3.015 1.08008 4.05C1.08008 5.085 1.89008 5.85 2.92508 5.85H15.0301C16.0651 5.85 16.8751 5.04 16.8751 4.005C16.8751 2.97 16.0201 2.205 14.9851 2.205ZM8.95508 0.9C9.76508 0.9 10.4401 1.44 10.6201 2.205H7.24508C7.47008 1.44 8.14508 0.9 8.95508 0.9ZM14.9851 4.95H2.92508C2.43008 4.95 1.98008 4.545 1.98008 4.005C1.98008 3.51 2.38508 3.06 2.92508 3.06H15.0301C15.5251 3.06 15.9751 3.465 15.9751 4.005C15.9301 4.545 15.5251 4.95 14.9851 4.95Z" fill="#F69223"/>
<path d="M5.80547 15.795C5.53547 15.795 5.35547 15.615 5.35547 15.345V7.83C5.35547 7.56 5.53547 7.38 5.80547 7.38C6.07547 7.38 6.25547 7.56 6.25547 7.83V15.345C6.25547 15.57 6.03047 15.795 5.80547 15.795Z" fill="#F69223"/>
<path d="M12.1053 15.795C11.8353 15.795 11.6553 15.615 11.6553 15.345V7.83C11.6553 7.56 11.8353 7.38 12.1053 7.38C12.3753 7.38 12.5553 7.56 12.5553 7.83V15.345C12.5553 15.57 12.3303 15.795 12.1053 15.795Z" fill="#F69223"/>
<path d="M8.95488 15.795C8.68488 15.795 8.50488 15.615 8.50488 15.345V7.83C8.50488 7.56 8.68488 7.38 8.95488 7.38C9.22488 7.38 9.40488 7.56 9.40488 7.83V15.345C9.40488 15.57 9.17988 15.795 8.95488 15.795Z" fill="#F69223"/>
</svg>
